<?xml version="1.0" standalone="no"?>
<!DOCTYPE svg PUBLIC "-//W3C//DTD SVG 20010904//EN"
 "http://www.w3.org/TR/2001/REC-SVG-20010904/DTD/svg10.dtd">
<svg version="1.0" xmlns="http://www.w3.org/2000/svg"
 width="963.000000pt" height="1280.000000pt" viewBox="0 0 963.000000 1280.000000"
 preserveAspectRatio="xMidYMid meet">
<g transform="translate(0.000000,1280.000000) scale(0.100000,-0.100000)"
fill="#000000" stroke="none">
<path d="M4570 12467 c0 -246 -3 -336 -12 -345 -8 -8 -62 -12 -178 -12 -479 0
-997 -80 -1468 -226 -818 -254 -1498 -722 -1978 -1359 -441 -585 -727 -1326
-853 -2210 -32 -223 -49 -419 -78 -903 l-6 -103 107 70 c196 127 468 256 697
330 392 127 787 146 1131 57 344 -90 671 -304 934 -611 59 -69 108 -125 110
-125 2 0 56 53 121 118 229 229 524 390 888 482 217 55 533 98 570 77 13 -7
15 -397 15 -3389 l0 -3382 -22 -45 c-30 -64 -187 -217 -279 -274 -156 -97
-331 -137 -472 -107 -278 57 -521 364 -687 863 -36 111 -68 154 -134 186 -84
41 -183 16 -233 -59 -65 -95 -70 -286 -15 -501 137 -534 464 -873 927 -962
222 -43 223 -43 420 -3 509 104 797 280 886 543 l23 68 -3 1500 c-2 825 -6
2407 -10 3515 -4 1108 -5 2021 -3 2029 7 18 100 10 287 -24 570 -105 1029
-308 1336 -592 33 -31 63 -52 68 -47 4 5 40 48 80 96 290 348 664 580 1076
668 128 28 428 38 572 20 395 -49 800 -204 1156 -442 l87 -58 0 51 c0 28 -4
103 -10 167 -5 65 -14 191 -20 282 -106 1607 -731 2826 -1820 3545 -191 126
-295 185 -492 279 -631 303 -1408 475 -2148 476 -108 0 -160 4 -168 12 -9 9
-12 99 -12 345 l0 333 -195 0 -195 0 0 -333z"/>
</g>
</svg>
